<?xml version="1.0" encoding="UTF-8"?>
<svg xmlns="http://www.w3.org/2000/svg" viewBox="0 0 1060 985" font-family="Helvetica, Arial, sans-serif"><defs><marker id="arr" viewBox="0 0 10 10" refX="8" refY="5" markerWidth="7" markerHeight="7" orient="auto-start-reverse"><path d="M0,0 L10,5 L0,10 z" fill="#8A97A0"></path></marker><filter id="sh" x="-20%" y="-20%" width="140%" height="140%"><feDropShadow dx="0" dy="1.2" stdDeviation="1.4" flood-color="#000" flood-opacity="0.16"></feDropShadow></filter></defs><rect width="1060" height="985" fill="#ffffff"></rect><text x="32" y="894" text-anchor="middle" font-size="12.5" font-weight="700" fill="#5D6D7E" dominant-baseline="middle" transform="rotate(-90 32 894)"><tspan x="32" dy="0">Data</tspan></text><rect x="107" y="864" width="150" height="60" rx="9" ry="9" fill="#E5E8E8" stroke="#AAB7B8" stroke-width="1.1" filter="url(#sh)"></rect><text x="182" y="894" text-anchor="middle" font-size="13.5" font-weight="600" fill="#283747" dominant-baseline="middle"><tspan x="182" dy="-8.37">GEMStat</tspan><tspan x="182" dy="16.74">943K</tspan></text><line x1="182" y1="864" x2="182" y2="840" stroke="#8A97A0" stroke-width="1.6" marker-end="url(#arr)"></line><rect x="281" y="864" width="150" height="60" rx="9" ry="9" fill="#E5E8E8" stroke="#AAB7B8" stroke-width="1.1" filter="url(#sh)"></rect><text x="356" y="894" text-anchor="middle" font-size="13.5" font-weight="600" fill="#283747" dominant-baseline="middle"><tspan x="356" dy="-8.37">USGS NWIS</tspan><tspan x="356" dy="16.74">163K</tspan></text><line x1="356" y1="864" x2="356" y2="840" stroke="#8A97A0" stroke-width="1.6" marker-end="url(#arr)"></line><rect x="455" y="864" width="150" height="60" rx="9" ry="9" fill="#E5E8E8" stroke="#AAB7B8" stroke-width="1.1" filter="url(#sh)"></rect><text x="530" y="894" text-anchor="middle" font-size="13.5" font-weight="600" fill="#283747" dominant-baseline="middle"><tspan x="530" dy="-8.37">ADES</tspan><tspan x="530" dy="16.74">694K</tspan></text><line x1="530" y1="864" x2="530" y2="840" stroke="#8A97A0" stroke-width="1.6" marker-end="url(#arr)"></line><rect x="629" y="864" width="150" height="60" rx="9" ry="9" fill="#E5E8E8" stroke="#AAB7B8" stroke-width="1.1" filter="url(#sh)"></rect><text x="704" y="894" text-anchor="middle" font-size="13.5" font-weight="600" fill="#283747" dominant-baseline="middle"><tspan x="704" dy="-8.37">EEA</tspan><tspan x="704" dy="16.74">288K</tspan></text><line x1="704" y1="864" x2="704" y2="840" stroke="#8A97A0" stroke-width="1.6" marker-end="url(#arr)"></line><rect x="803" y="864" width="150" height="60" rx="9" ry="9" fill="#E5E8E8" stroke="#AAB7B8" stroke-width="1.1" filter="url(#sh)"></rect><text x="878" y="894" text-anchor="middle" font-size="13.5" font-weight="600" fill="#283747" dominant-baseline="middle"><tspan x="878" dy="-8.37">Bangladesh</tspan><tspan x="878" dy="16.74">1,807</tspan></text><line x1="878" y1="864" x2="878" y2="840" stroke="#8A97A0" stroke-width="1.6" marker-end="url(#arr)"></line><text x="32" y="815" text-anchor="middle" font-size="12.5" font-weight="700" fill="#5D6D7E" dominant-baseline="middle" transform="rotate(-90 32 815)"><tspan x="32" dy="0">Tokenize</tspan></text><rect x="150" y="792" width="760" height="46" rx="9" ry="9" fill="#D5DBDB" stroke="#AAB7B8" stroke-width="1.1" filter="url(#sh)"></rect><text x="530" y="815" text-anchor="middle" font-size="14" font-weight="600" fill="#283747" dominant-baseline="middle"><tspan x="530" dy="0">Harmonization → 20 chemistry parameters + 18 GEE auxiliary features</tspan></text><line x1="530" y1="792" x2="530" y2="770" stroke="#8A97A0" stroke-width="1.6" marker-end="url(#arr)"></line><text x="32" y="718" text-anchor="middle" font-size="12.5" font-weight="700" fill="#5D6D7E" dominant-baseline="middle" transform="rotate(-90 32 718)"><tspan x="32" dy="0">Input</tspan></text><rect x="130" y="666" width="800" height="104" rx="12" ry="12" fill="#F7F9FA" stroke="#CBD5DB" stroke-width="1.1"></rect><rect x="186" y="680" width="54" height="30" rx="6" ry="6" fill="#5D6D7E"></rect><text x="213" y="695" text-anchor="middle" font-size="12.5" font-weight="600" fill="#fff" dominant-baseline="middle"><tspan x="213" dy="0">[CLS]</tspan></text><rect x="252" y="680" width="44" height="30" rx="6" ry="6" fill="#B8A6D9"></rect><text x="274" y="695" text-anchor="middle" font-size="12.5" font-weight="600" fill="#283747" dominant-baseline="middle"><tspan x="274" dy="0">As</tspan></text><rect x="302" y="680" width="44" height="30" rx="6" ry="6" fill="#B8A6D9"></rect><text x="324" y="695" text-anchor="middle" font-size="12.5" font-weight="600" fill="#283747" dominant-baseline="middle"><tspan x="324" dy="0">Fe</tspan></text><rect x="352" y="680" width="44" height="30" rx="6" ry="6" fill="#B8A6D9"></rect><text x="374" y="695" text-anchor="middle" font-size="12.5" font-weight="600" fill="#283747" dominant-baseline="middle"><tspan x="374" dy="0">Eh</tspan></text><rect x="402" y="680" width="44" height="30" rx="6" ry="6" fill="#B8A6D9"></rect><text x="424" y="695" text-anchor="middle" font-size="12.5" font-weight="600" fill="#283747" dominant-baseline="middle"><tspan x="424" dy="0">PO₄</tspan></text><rect x="452" y="680" width="44" height="30" rx="6" ry="6" fill="#B8A6D9"></rect><text x="474" y="695" text-anchor="middle" font-size="12.5" font-weight="600" fill="#283747" dominant-baseline="middle"><tspan x="474" dy="0">U</tspan></text><rect x="502" y="680" width="44" height="30" rx="6" ry="6" fill="#B8A6D9"></rect><text x="524" y="695" text-anchor="middle" font-size="12.5" font-weight="600" fill="#283747" dominant-baseline="middle"><tspan x="524" dy="0">⋯</tspan></text><rect x="568" y="680" width="52" height="30" rx="6" ry="6" fill="#9CCFB0"></rect><text x="594" y="695" text-anchor="middle" font-size="12.5" font-weight="600" fill="#283747" dominant-baseline="middle"><tspan x="594" dy="0">elev</tspan></text><rect x="626" y="680" width="52" height="30" rx="6" ry="6" fill="#9CCFB0"></rect><text x="652" y="695" text-anchor="middle" font-size="12.5" font-weight="600" fill="#283747" dominant-baseline="middle"><tspan x="652" dy="0">NDVI</tspan></text><rect x="684" y="680" width="52" height="30" rx="6" ry="6" fill="#9CCFB0"></rect><text x="710" y="695" text-anchor="middle" font-size="12.5" font-weight="600" fill="#283747" dominant-baseline="middle"><tspan x="710" dy="0">TWSA</tspan></text><rect x="742" y="680" width="52" height="30" rx="6" ry="6" fill="#9CCFB0"></rect><text x="768" y="695" text-anchor="middle" font-size="12.5" font-weight="600" fill="#283747" dominant-baseline="middle"><tspan x="768" dy="0">⋯</tspan></text><rect x="816" y="680" width="58" height="30" rx="6" ry="6" fill="#D7B8A0"></rect><text x="845" y="695" text-anchor="middle" font-size="12.5" font-weight="600" fill="#283747" dominant-baseline="middle"><tspan x="845" dy="0">WBT</tspan></text><text x="399" y="728" text-anchor="middle" font-size="11.5" font-weight="700" fill="#7E57C2" dominant-baseline="middle"><tspan x="399" dy="0">chemistry tokens</tspan></text><text x="681" y="728" text-anchor="middle" font-size="11.5" font-weight="700" fill="#3E9C6B" dominant-baseline="middle"><tspan x="681" dy="0">auxiliary (satellite) tokens</tspan></text><text x="530" y="752" text-anchor="middle" font-size="11.5" font-weight="normal" fill="#5D6D7E" dominant-baseline="middle" font-style="italic"><tspan x="530" dy="0">each token = type embedding + per-parameter value projection</tspan></text><line x1="530" y1="666" x2="530" y2="630" stroke="#8A97A0" stroke-width="1.6" marker-end="url(#arr)"></line><text x="32" y="499" text-anchor="middle" font-size="12.5" font-weight="700" fill="#5D6D7E" dominant-baseline="middle" transform="rotate(-90 32 499)"><tspan x="32" dy="0">Encoder (N×)</tspan></text><rect x="340" y="350" width="380" height="280" rx="14" ry="14" fill="#EEF2F4" stroke="#B8C4CC" stroke-width="1.1"></rect><rect x="321" y="473" width="38" height="34" rx="8" ry="8" fill="#fff" stroke="#B8C4CC" stroke-width="1.1"></rect><text x="340" y="490" text-anchor="middle" font-size="16" font-weight="800" fill="#5D6D7E" dominant-baseline="middle"><tspan x="340" dy="0">N×</tspan></text><rect x="400" y="548" width="260" height="56" rx="9" ry="9" fill="#F4A582" filter="url(#sh)"></rect><text x="530" y="576" text-anchor="middle" font-size="13.5" font-weight="700" fill="#283747" dominant-baseline="middle"><tspan x="530" dy="-8.37">Multi-Head</tspan><tspan x="530" dy="16.74">Self-Attention</tspan></text><rect x="400" y="498" width="260" height="32" rx="9" ry="9" fill="#FCE3A0" filter="url(#sh)"></rect><text x="530" y="514" text-anchor="middle" font-size="12.5" font-weight="600" fill="#283747" dominant-baseline="middle"><tspan x="530" dy="0">Add &amp; Norm</tspan></text><rect x="400" y="430" width="260" height="48" rx="9" ry="9" fill="#A6CEE3" filter="url(#sh)"></rect><text x="530" y="454" text-anchor="middle" font-size="13.5" font-weight="700" fill="#283747" dominant-baseline="middle"><tspan x="530" dy="0">Feed Forward</tspan></text><rect x="400" y="380" width="260" height="32" rx="9" ry="9" fill="#FCE3A0" filter="url(#sh)"></rect><text x="530" y="396" text-anchor="middle" font-size="12.5" font-weight="600" fill="#283747" dominant-baseline="middle"><tspan x="530" dy="0">Add &amp; Norm</tspan></text><line x1="530" y1="548" x2="530" y2="530" stroke="#8A97A0" stroke-width="1.6" marker-end="url(#arr)"></line><line x1="530" y1="498" x2="530" y2="478" stroke="#8A97A0" stroke-width="1.6" marker-end="url(#arr)"></line><line x1="530" y1="430" x2="530" y2="412" stroke="#8A97A0" stroke-width="1.6" marker-end="url(#arr)"></line><path fill="none" stroke="#8A97A0" stroke-width="1.5" d="M 530 600 C 700 600, 700 514, 660 514" marker-end="url(#arr)" stroke-dasharray="4 3"></path><path fill="none" stroke="#8A97A0" stroke-width="1.5" d="M 530 474 C 700 474, 700 396, 660 396" marker-end="url(#arr)" stroke-dasharray="4 3"></path><text x="32" y="287" text-anchor="middle" font-size="12.5" font-weight="700" fill="#5D6D7E" dominant-baseline="middle" transform="rotate(-90 32 287)"><tspan x="32" dy="0">Pool</tspan></text><line x1="530" y1="380" x2="530" y2="314" stroke="#8A97A0" stroke-width="1.6" marker-end="url(#arr)"></line><rect x="365" y="262" width="330" height="52" rx="9" ry="9" fill="#C7B8E0" filter="url(#sh)"></rect><text x="530" y="288" text-anchor="middle" font-size="14" font-weight="700" fill="#283747" dominant-baseline="middle"><tspan x="530" dy="0">[CLS] pooling   →   latent  h ∈ ℝᵈ</tspan></text><text x="32" y="150" text-anchor="middle" font-size="12.5" font-weight="700" fill="#5D6D7E" dominant-baseline="middle" transform="rotate(-90 32 150)"><tspan x="32" dy="0">Heads</tspan></text><path fill="none" stroke="#8A97A0" stroke-width="1.5" d="M 530 262 C 530 222, 360 236, 360 196" marker-end="url(#arr)"></path><path fill="none" stroke="#8A97A0" stroke-width="1.5" d="M 530 262 C 530 222, 700 236, 700 196" marker-end="url(#arr)"></path><rect x="240" y="114" width="240" height="82" rx="9" ry="9" fill="#E89B6C" filter="url(#sh)"></rect><text x="360" y="155" text-anchor="middle" font-size="13.5" font-weight="700" fill="#3B2415" dominant-baseline="middle"><tspan x="360" dy="-8.37">MGM Reconstruction Head</tspan><tspan x="360" dy="16.74">(masked value prediction)</tspan></text><rect x="580" y="114" width="240" height="82" rx="9" ry="9" fill="#82C99A" filter="url(#sh)"></rect><text x="700" y="155" text-anchor="middle" font-size="13.5" font-weight="700" fill="#1E3A2A" dominant-baseline="middle"><tspan x="700" dy="-8.37">Classifier Head (MLP)</tspan><tspan x="700" dy="16.74">WHO-threshold exceedance</tspan></text><text x="360" y="96" text-anchor="middle" font-size="12" font-weight="normal" fill="#5D6D7E" dominant-baseline="middle" font-style="italic"><tspan x="360" dy="0">pretraining objective</tspan></text><text x="700" y="96" text-anchor="middle" font-size="12" font-weight="normal" fill="#5D6D7E" dominant-baseline="middle" font-style="italic"><tspan x="700" dy="0">downstream task</tspan></text></svg>